<?xml version="1.0" encoding="UTF-8" standalone="no"?><svg id="design" xmlns="http://www.w3.org/2000/svg" viewBox="0 0 200 180"><defs><style>.cls-1{fill:#f0f0f0;}.cls-2{fill:#e2e2e2;}.cls-3{fill:#fff;}.cls-4{fill:#0a0080;}.cls-5{fill:none;stroke:#e2e2e2;stroke-miterlimit:10;stroke-width:3px;}.cls-6{fill:#005eb8;stroke:#fff;stroke-linejoin:round;stroke-width:5px;}.cls-7{fill:#fbb040;}</style></defs><g id="_Group_6" data-name=" Group 6"><rect id="_Path_128" data-name=" Path 128" class="cls-1" y="94.73" width="148.43" height="84.72"/><rect id="_Path_129" data-name=" Path 129" class="cls-2" y="82.17" width="148.43" height="12.56"/><g id="_Group_7" data-name=" Group 7"><path id="_Path_133" data-name=" Path 133" class="cls-3" d="M6.86,90.19h0a1.74,1.74,0,0,1-1.74-1.74h0a1.74,1.74,0,0,1,1.74-1.74h0A1.73,1.73,0,0,1,8.6,88.45h0A1.77,1.77,0,0,1,6.86,90.19Z"/><path id="_Path_134" data-name=" Path 134" class="cls-3" d="M12.27,90.19h0a1.74,1.74,0,0,1-1.74-1.74h0a1.73,1.73,0,0,1,1.74-1.74h0A1.74,1.74,0,0,1,14,88.45h0a1.7,1.7,0,0,1-1.74,1.74Z"/><path id="_Path_135" data-name=" Path 135" class="cls-3" d="M17.8,90.19h0a1.73,1.73,0,0,1-1.74-1.74h0a1.73,1.73,0,0,1,1.74-1.74h0a1.74,1.74,0,0,1,1.74,1.74h0A1.79,1.79,0,0,1,17.8,90.19Z"/></g></g><rect id="_Path_40" data-name=" Path 40" class="cls-1" y="175.47" width="148.43" height="4.53"/><rect id="_Path_136" data-name=" Path 136" class="cls-4" x="5.95" y="100.4" width="6.33" height="4.34"/><rect id="_Path_137" data-name=" Path 137" class="cls-4" x="5.95" y="107.67" width="6.33" height="4.34"/><rect id="_Path_138" data-name=" Path 138" class="cls-4" x="5.95" y="114.85" width="6.33" height="4.34"/><rect id="_Path_139" data-name=" Path 139" class="cls-4" x="5.95" y="122.17" width="6.33" height="4.34"/><rect id="_Path_140" data-name=" Path 140" class="cls-4" x="5.95" y="129.35" width="6.33" height="4.34"/><rect id="_Path_141" data-name=" Path 141" class="cls-4" x="5.95" y="136.62" width="6.33" height="4.34"/><rect id="_Path_142" data-name=" Path 142" class="cls-4" x="5.95" y="143.8" width="6.33" height="4.34"/><rect id="_Path_143" data-name=" Path 143" class="cls-4" x="5.95" y="151.07" width="6.33" height="4.34"/><rect id="_Path_144" data-name=" Path 144" class="cls-4" x="5.95" y="158.3" width="6.33" height="4.34"/><rect id="_Path_145" data-name=" Path 145" class="cls-4" x="5.95" y="165.57" width="6.33" height="4.34"/><rect id="_Path_146" data-name=" Path 146" class="cls-2" x="20.03" y="100.4" width="97.47" height="4.34"/><rect id="_Path_148" data-name=" Path 148" class="cls-2" x="20.03" y="114.85" width="31.31" height="4.34"/><rect id="_Path_149" data-name=" Path 149" class="cls-2" x="20.03" y="122.17" width="22.34" height="4.34"/><rect id="_Path_150" data-name=" Path 150" class="cls-2" x="20.03" y="129.35" width="33.06" height="4.34"/><rect id="_Path_151" data-name=" Path 151" class="cls-2" x="20.03" y="136.62" width="97.47" height="4.34"/><rect id="_Path_152" data-name=" Path 152" class="cls-2" x="20.03" y="143.8" width="46.56" height="4.34"/><rect id="_Path_153" data-name=" Path 153" class="cls-2" x="20.03" y="151.07" width="64.37" height="4.34"/><rect id="_Path_154" data-name=" Path 154" class="cls-2" x="20.03" y="158.3" width="75.75" height="4.34"/><rect id="_Path_156" data-name=" Path 156" class="cls-2" x="53.58" y="114.85" width="31.31" height="4.34"/><rect id="_Path_157" data-name=" Path 157" class="cls-2" x="44.75" y="122.17" width="22.34" height="4.34"/><rect id="_Path_147" data-name=" Path 147" class="cls-2" x="20.03" y="107.67" width="75.75" height="4.34"/><rect id="_Path_155" data-name=" Path 155" class="cls-2" x="20.03" y="165.57" width="90.67" height="4.34"/><rect id="_Path_158" data-name=" Path 158" class="cls-2" x="69.53" y="122.17" width="42.17" height="4.34"/><path id="_Path_46" data-name=" Path 46" class="cls-5" d="M143.15,152.74h19.91V22.8H37.76"/><path class="cls-6" d="M154.56,66.18l-5.9-11.05H124.09v56.13a6.05,6.05,0,0,0,6,6H196a6.05,6.05,0,0,0,6.05-6V66.18Z"/><path class="cls-3" d="M147.45,79.51,135.21,91.74,147.45,104l3.5-3.5-8.74-8.74L151,83Z"/><path class="cls-3" d="M175.14,83l8.74,8.74-8.74,8.74,3.5,3.5,12.24-12.24L178.64,79.51Z"/><path class="cls-3" d="M155.11,99.67l11.65-19.46L171,82.76l-11.66,19.45Z"/><g id="_Group_3" data-name=" Group 3"><circle id="_Path_43" data-name=" Path 43" class="cls-7" cx="92.25" cy="22.5" r="22.5"/></g><path id="_Compound_Path_" data-name=" Compound Path " class="cls-3" d="M102.19,23.81c0-.46.15-.84.15-1.3a3.86,3.86,0,0,0-.15-1.3L105,18.92a.68.68,0,0,0,.15-.84h0l-2.75-4.65a.61.61,0,0,0-.84-.23l-3.35,1.3a8.23,8.23,0,0,0-2.29-1.3l-.46-3.59A.67.67,0,0,0,94.78,9H89.44a.68.68,0,0,0-.69.61L88.3,13.2A10.63,10.63,0,0,0,86,14.5l-3.28-1.3a.72.72,0,0,0-.84.23l-2.75,4.65a.62.62,0,0,0,.15.84l2.82,2.29c0,.46-.15.84-.15,1.3a3.86,3.86,0,0,0,.15,1.3l-2.82,2.28a.6.6,0,0,0-.15.77l2.75,4.65a.61.61,0,0,0,.84.23l3.35-1.3a8.23,8.23,0,0,0,2.29,1.3l.46,3.59a.67.67,0,0,0,.69.61h5.34a.68.68,0,0,0,.69-.61L96,31.74a10.63,10.63,0,0,0,2.29-1.3l3.36,1.3a.72.72,0,0,0,.84-.23l2.75-4.65a.62.62,0,0,0-.15-.84Zm-10,3.43a4.73,4.73,0,1,1,4.73-4.73,4.66,4.66,0,0,1-4.73,4.73Z"/><path id="_Path_41" data-name=" Path 41" class="cls-7" d="M45.06,22.5A22.53,22.53,0,1,1,22.5,0h0A22.55,22.55,0,0,1,45.06,22.5Z"/><path class="cls-3" d="M22.53,8.42a10.19,10.19,0,0,0-10.2,10.2A10.3,10.3,0,0,0,14,24.26c1.2,1.83,2.95,3.31,3.84,5.26h3.53V20.19H19.57a1.14,1.14,0,0,1,0-2.28h5.92a1.14,1.14,0,0,1,0,2.28H23.67v9.33h3.48a14.6,14.6,0,0,1,2.94-4.09,9.87,9.87,0,0,0,2.64-6.79A10.2,10.2,0,0,0,22.53,8.42Z"/><path class="cls-3" d="M18.43,32.05v3.17a1.37,1.37,0,0,0,1.37,1.36h5.46a1.37,1.37,0,0,0,1.37-1.36V31.8h-8.2Z"/><circle id="_Path_42" data-name=" Path 42" class="cls-7" cx="162" cy="22.5" r="22.5"/><circle class="cls-3" cx="162" cy="16.09" r="3.52"/><path class="cls-3" d="M162,36.58a.9.9,0,0,1-.9-.9V9.32a.9.9,0,1,1,1.8,0V35.68A.9.9,0,0,1,162,36.58Z"/><circle class="cls-3" cx="153.74" cy="27.8" r="3.52"/><path class="cls-3" d="M153.74,36.58a.9.9,0,0,1-.9-.9V9.32a.9.9,0,1,1,1.79,0V35.68A.89.89,0,0,1,153.74,36.58Z"/><circle class="cls-3" cx="170.26" cy="24.88" r="3.52"/><path class="cls-3" d="M170.26,36.58a.9.9,0,0,1-.9-.9V9.32a.9.9,0,0,1,1.8,0V35.68A.9.9,0,0,1,170.26,36.58Z"/></svg>