<?xml version="1.0" encoding="UTF-8" standalone="no"?><svg id="design" xmlns="http://www.w3.org/2000/svg" viewBox="0 0 200 180"><defs><style>.cls-1{fill:#f4f4f4;}.cls-2{fill:#eaeaea;}.cls-3{fill:#005eb8;}.cls-4{fill:#fff;}.cls-5{fill:#fbb040;}.cls-6{fill:none;stroke:#eaeaea;stroke-miterlimit:10;stroke-width:4px;}.cls-7{fill:#ea7500;}.cls-8{fill:#fdcda5;}.cls-9{fill:#d1d1d1;}</style></defs><path class="cls-1" d="M41.74,33.48H196a0,0,0,0,1,0,0v83.18a9.88,9.88,0,0,1-9.88,9.88H51.62a9.88,9.88,0,0,1-9.88-9.88V33.48A0,0,0,0,1,41.74,33.48Z"/><path class="cls-2" d="M188.54,14.72H94L81.24,2.15A7.44,7.44,0,0,0,76,0H49.21a7.47,7.47,0,0,0-7.47,7.46V34.33H196V22.19A7.47,7.47,0,0,0,188.54,14.72Z"/><rect class="cls-3" x="125.31" y="44.91" width="54.26" height="30.4"/><path class="cls-4" d="M177.07,47.41V72.8H127.81V47.41h49.26m5-5H122.81V77.8h59.26V42.41Z"/><rect class="cls-5" x="57.44" y="44.91" width="54.26" height="30.4"/><path class="cls-4" d="M109.2,47.41V72.8H59.94V47.41H109.2m5-5H54.94V77.8H114.2V42.41Z"/><rect class="cls-4" x="55.67" y="86.34" width="36.32" height="28.16"/><rect class="cls-4" x="145.75" y="86.34" width="36.32" height="28.16"/><rect class="cls-4" x="101.44" y="86.34" width="36.32" height="28.16"/><path class="cls-4" d="M158.27,53.11l-7.77,7.77L146.61,57l-3.1,3.1,7,7,10.88-10.88Z"/><line class="cls-6" x1="119.6" y1="92.92" x2="119.6" y2="107.92"/><line class="cls-6" x1="112.1" y1="100.42" x2="127.11" y2="100.42"/><line class="cls-6" x1="73.83" y1="92.92" x2="73.83" y2="107.92"/><line class="cls-6" x1="66.33" y1="100.42" x2="81.33" y2="100.42"/><path class="cls-7" d="M82.41,62.36v-.91a3.29,3.29,0,0,1,.43-1.75,4.37,4.37,0,0,1,1.5-1.4,5.48,5.48,0,0,0,1.24-1,1.48,1.48,0,0,0,.38-1,.82.82,0,0,0-.41-.71,1.94,1.94,0,0,0-1-.26,8.22,8.22,0,0,0-3.74,1.14l-1.48-2.89A11,11,0,0,1,84.8,52.1a6,6,0,0,1,3.71,1A3.4,3.4,0,0,1,89.86,56a4.05,4.05,0,0,1-.6,2.22A6.14,6.14,0,0,1,87.35,60,7.47,7.47,0,0,0,86,61a1.19,1.19,0,0,0-.28.79v.54ZM82,66.08a2,2,0,0,1,.56-1.51A2.39,2.39,0,0,1,84.19,64a2.27,2.27,0,0,1,1.63.54,1.94,1.94,0,0,1,.57,1.5,1.91,1.91,0,0,1-.59,1.49,2.28,2.28,0,0,1-1.61.53,2.39,2.39,0,0,1-1.64-.52A1.88,1.88,0,0,1,82,66.08Z"/><g id="_Group_2-2" data-name=" Group 2-2"><g id="_Group_3-2" data-name=" Group 3-2"><path id="_Path_2-2" data-name=" Path 2-2" class="cls-3" d="M92.49,118.37l-1.38-.1a20,20,0,0,0-7.3,1.38L40.62,76.46A20,20,0,0,0,42,69.17l-.1-1.38A21,21,0,0,0,21,48.16a20.76,20.76,0,0,0-9,2.07l14,14A6.39,6.39,0,0,1,27.6,66.8,7.12,7.12,0,0,1,26,74.19a7,7,0,0,1-4.94,2.07,7.43,7.43,0,0,1-2.46-.49,10.22,10.22,0,0,1-2.56-1.58l-14-14a21.39,21.39,0,0,0-2.07,9A21,21,0,0,0,19.62,90.08l1.39.1a20,20,0,0,0,7.29-1.39L71.49,132a21.92,21.92,0,0,0-1.38,7.3l.09,1.38a20.85,20.85,0,0,0,29.87,17.55l-14-14a6.39,6.39,0,0,1-1.57-2.57,7.12,7.12,0,0,1,1.57-7.39A7,7,0,0,1,91,132.18a7.43,7.43,0,0,1,2.46.49A6.55,6.55,0,0,1,96,134.25l14,14a21.31,21.31,0,0,0,2.06-9A21,21,0,0,0,92.49,118.37Z"/><g id="_Group_4-2" data-name=" Group 4-2"><g id="_Group_5" data-name=" Group 5"><g id="_Group_6" data-name=" Group 6"><path id="_Path_3-2" data-name=" Path 3-2" class="cls-8" d="M85.09,112.94c-2.56-5.42-5.72-5.42-5.72-5.42-2.66-9-7.1-9.47-7.1-9.47-2.07-7.89-6.6-6.5-6.6-6.5C65,81.19,60,79.22,56.69,81.1a5.3,5.3,0,0,0-2.56,3.05c-1.77,5.23-2.86,24.36-4.64,24.36s-7.59-6.21-7.59-6.21-7.1,18.14-5,23.07,18,26.42,18,26.42a11.73,11.73,0,0,0,1.78.1c5.54.5,22.48,1.78,24.15,1,2.07-1,6.22-20.11,6.61-23.85A32.76,32.76,0,0,0,85.09,112.94Z"/><g id="_Group_7" data-name=" Group 7"><polygon id="_Path_4-2" data-name=" Path 4-2" class="cls-2" points="56.59 149.95 47.58 149.95 47.58 180 56.59 180 87.51 180 87.51 149.95 56.59 149.95"/></g><g id="_Group_7-2" data-name=" Group 7"><polygon id="_Path_4-2-2" data-name=" Path 4-2" class="cls-9" points="54.18 164.97 43.19 164.97 43.19 180 54.18 180 91.89 180 91.89 164.97 54.18 164.97"/></g></g></g></g></g></g><g id="_06-speed" data-name=" 06-speed"><g id="Glyph"><path class="cls-5" d="M163.26,90.34a36.88,36.88,0,0,0-30.92,57,3.07,3.07,0,0,0,2.57,1.4H191.6a3.06,3.06,0,0,0,2.57-1.4,36.88,36.88,0,0,0-30.91-57Z"/><path class="cls-4" d="M172.48,114.32s1.31,16.18-1.23,20.59a9.23,9.23,0,0,1-16-9.23C157.81,121.27,172.48,114.32,172.48,114.32Zm-6.15,16a3.08,3.08,0,1,0-3.07,3.07A3.06,3.06,0,0,0,166.33,130.29Z"/><path class="cls-5" d="M163.26,127.23a3.07,3.07,0,1,1-3.08,3.06A3.06,3.06,0,0,1,163.26,127.23Z"/><path class="cls-4" d="M193.09,114.89a32.3,32.3,0,0,1,0,24.62h-3.36a29,29,0,0,0,2.56-9.22h-4.45v-6.14h4.46a28.73,28.73,0,0,0-2.37-8.78l-3.84,2.21L183,112.26l3.84-2.21a29.18,29.18,0,0,0-6.42-6.42l-2.22,3.83-5.32-3.07,2.22-3.85a28.71,28.71,0,0,0-8.78-2.36v4.45h-6.15V98.18a29.53,29.53,0,0,0-8.78,2.36l2.22,3.85-5.32,3.07-2.22-3.83a29.39,29.39,0,0,0-6.42,6.42l3.84,2.21-3.08,5.32-3.84-2.21a29,29,0,0,0-2.36,8.78h4.45v6.14h-4.45a29,29,0,0,0,2.56,9.22h-3.36a32.27,32.27,0,0,1,59.67-24.62Z"/></g></g></svg>