<?xml version="1.0" encoding="UTF-8" standalone="no"?><svg id="design" xmlns="http://www.w3.org/2000/svg" viewBox="0 0 200 180"><defs><style>.cls-1{fill:#e5f3fd;}.cls-2{fill:#c9e8ff;}.cls-3{fill:#70bef2;}.cls-4{fill:#005eb8;}.cls-5{fill:#0a0080;}.cls-6{fill:#0f89db;}.cls-7{fill:#fbb040;}.cls-8{fill:#fff;}</style></defs><polygon class="cls-1" points="100 45.79 164.62 68.03 189.68 48.61 125.06 26.37 100 45.79"/><polygon class="cls-2" points="100 45.79 35.38 68.03 10.32 48.61 74.94 26.37 100 45.79"/><polygon class="cls-3" points="164.62 68.17 100 45.89 34.76 68.17 34.76 140.45 99.69 120.05 164.62 140.45 164.62 68.17"/><path class="cls-4" d="M44.58,15.71H155.42a0,0,0,0,1,0,0V79.84a8.61,8.61,0,0,1-8.61,8.61H53.19a8.61,8.61,0,0,1-8.61-8.61V15.71A0,0,0,0,1,44.58,15.71Z"/><polygon class="cls-4" points="90.09 19.75 44.58 19.75 44.58 0 79.53 0 90.09 19.75"/><rect class="cls-5" x="51.75" y="23.3" width="96.54" height="32.85"/><rect class="cls-6" x="51.75" y="63.07" width="96.54" height="7.59"/><polygon class="cls-2" points="34.76 140.41 99.37 163.52 100 90.4 34.76 68.13 34.76 140.41"/><polygon class="cls-3" points="164.62 140.41 99.37 163.52 99.37 90.4 164.62 68.13 164.62 140.41"/><polygon class="cls-1" points="0 89.22 65.24 111.5 100.31 90.4 35.07 68.13 0 89.22"/><polygon class="cls-2" points="200 89.22 134.76 111.5 99.69 90.4 164.93 68.13 200 89.22"/><path class="cls-7" d="M83.64,21.07l-5.26,2,5.26,2A14.87,14.87,0,0,1,89.55,31l2,5.26,2-5.26a14.75,14.75,0,0,1,5.91-5.91l5.26-2-5.26-2a14.87,14.87,0,0,1-5.91-5.91l-2-5.27-2,5.27A15,15,0,0,1,83.64,21.07Z"/><path class="cls-7" d="M109.13,41.19l-2.68,1,2.68,1a7.58,7.58,0,0,1,3,3l1,2.68,1-2.68a7.58,7.58,0,0,1,3-3l2.68-1-2.68-1a7.64,7.64,0,0,1-3-3l-1-2.68-1,2.68A7.64,7.64,0,0,1,109.13,41.19Z"/><path class="cls-7" d="M59.16,61.59l-2.68,1,2.68,1a7.62,7.62,0,0,1,3,3l1,2.68,1-2.68a7.56,7.56,0,0,1,3-3l2.67-1-2.67-1a7.49,7.49,0,0,1-3-3l-1-2.68-1,2.68A7.56,7.56,0,0,1,59.16,61.59Z"/><circle class="cls-4" cx="165.12" cy="154.4" r="27.5"/><path class="cls-8" d="M165.12,129.4a25,25,0,1,1-25,25,25,25,0,0,1,25-25m0-5a30,30,0,1,0,30,30,30,30,0,0,0-30-30Z"/><path class="cls-8" d="M174.44,143.21,162,155.64l-6.22-6.22-5,5L162,165.59l17.41-17.41Z"/></svg>